<?xml version="1.0" encoding="utf-8"?>
<!-- Generator: Adobe Illustrator 24.0.1, SVG Export Plug-In . SVG Version: 6.00 Build 0)  -->
<svg version="1.1" id="Layer_1" xmlns="http://www.w3.org/2000/svg" xmlns:xlink="http://www.w3.org/1999/xlink" x="0px" y="0px"
	 viewBox="0 0 49.3 61.3" enable-background="new 0 0 49.3 61.3" xml:space="preserve">
<path fill="#07ACD9" d="M0.7,49.5c0.5-0.6,1-1.2,1.4-1.8c0.2-0.3,0.2-0.6,0.2-1c0-3.2,0-6.4,0-9.6c0-1.3,0.3-2.5,1.1-3.5
	c0.2-0.3,0.5-0.6,0.8-0.8c0.7-0.4,1.5-0.9,2.1-0.5c0.5,0.3,0.2,1.2,0.2,1.8c0,2.2,0,4.3,0,6.5c0,0.3,0.1,0.6-0.1,0.8
	c-0.3,0.2-0.6-0.1-0.9-0.2c-0.2-0.1-0.4-0.5-0.7-0.3c-0.3,0.2-0.2,0.5-0.2,0.8c0,1.8,0,3.5,0,5.3c0,0.4,0.1,0.8,0.5,1.1
	c1,0.8,1.3,1.9,0.8,3.1c-0.4,1-1.2,1.6-2.3,1.7c-1.3,0-2.2-0.6-2.7-1.8c-0.1-0.1-0.1-0.3-0.3-0.3C0.7,50.2,0.7,49.9,0.7,49.5z"/>
<path fill="#07ACD9" d="M25.3,0.9C26,1.1,26.6,1.5,27,2.1c0.5,0.9,0.5,1.8-0.3,2.6c-0.5,0.5-0.9,1.1-0.8,1.8c0.1,0.8-0.4,0.9-1,0.9
	c-0.7,0-1-0.3-0.9-0.9c0.1-0.6,0-1.2-0.5-1.6c-1.3-1.3-0.9-3.1,0.8-3.8c0.1,0,0.1-0.1,0.2-0.2C24.8,0.9,25.1,0.9,25.3,0.9z"/>
<path fill="#07ACD9" d="M25,32.1c5.2,0,10.4,0,15.6,0c0.9,0,1.3,0.2,1.3,1.2c-0.1,3.7,0.1,7.3-0.1,11c-0.3,6.3-3.5,11-9,13.9
	c-4.7,2.5-9.6,2.7-14.5,0.5c-4.8-2.1-7.8-5.7-9.4-10.6c-0.6-1.9-0.7-3.9-0.6-5.9c0.1-3,0-5.9,0-8.9c0-0.9,0.3-1.2,1.2-1.2
	C14.6,32.2,19.8,32.1,25,32.1C25,32.1,25,32.1,25,32.1z"/>
<path fill="#07ACD9" d="M25,29.7c-5.2,0-10.5,0-15.7,0c-0.8,0-1.1-0.2-1.1-1.1c0.1-2.2-0.1-4.4,0.4-6.7c0.8-3.4,2.5-6.4,5.1-8.7
	c3.2-2.9,6.9-4.3,11.2-4.4c3.8-0.1,7.2,1.1,10.2,3.4c2.8,2.1,4.7,4.8,5.9,8.1c0.8,2.3,0.9,4.7,0.9,7.1c0,2.3,0,2.2-2.3,2.2
	C34.7,29.6,29.9,29.6,25,29.7C25,29.6,25,29.7,25,29.7z M19.2,20c-0.1,3.5,2.9,5.9,6,5.8c3.4-0.1,5.8-2.7,5.7-6.2
	c-0.1-2.9-2.9-5.5-5.8-5.5C21.7,14.2,19.1,16.8,19.2,20z"/>
<path fill="#07ACD9" d="M47.7,41.3c0,2,0,3.7,0,5.3c0,0.6,0.2,1.1,0.6,1.5c1,1,1.2,2.2,0.6,3.2c-0.8,1.3-1.9,1.7-3.3,1.3
	c-1.7-0.5-2.3-2.9-1-4.2c0.6-0.6,0.8-1.3,0.8-2.1c0-1.6,0-3.2,0-4.8c0-0.2,0.1-0.5-0.1-0.6c-0.2-0.1-0.5,0.1-0.7,0.2
	c-0.3,0.2-0.5,0.6-0.9,0.4c-0.4-0.2-0.2-0.7-0.2-1.1c0-2.5,0-4.9,0-7.4c0-0.7,0.3-0.9,0.9-0.8c1.5,0.2,2.8,1.5,3.1,3.1
	C48,37.4,47.6,39.6,47.7,41.3z"/>
<path fill="#07ACD9" d="M21.8,20.1c0-1.9,1.4-3.4,3.1-3.4c0.5,0,0.7,0.1,0.6,0.7c-0.1,1.4,0.7,2.1,2,1.6c0.8-0.3,0.7,0.3,0.8,0.7
	c0.2,1.2-0.8,2.8-1.9,3.3c-1.3,0.6-2.9,0.2-3.7-0.9C22.1,21.5,21.7,20.8,21.8,20.1z"/>
</svg>
